{"title":"The Rise And Fall Of a White Collar Hooligan 2012 DVDRip XviD- T","uid":7410173,"size":747969232,"categoryP":"video","categoryS":"movies","magnet":"?xt=urn:btih:0e2b5add15d68a99e725ccd4fc22434bdf819319&amp;dn=The+Rise+And+Fall+Of+a+White+Collar+Hooligan+2012+DVDRip+XviD-+T&amp;tr=udp%3A%2F%2Ftracker.openbittorrent.com%3A80&amp;tr=udp%3A%2F%2Fopen.demonii.com%3A1337&amp;tr=udp%3A%2F%2Ftracker.coppersurfer.tk%3A6969&amp;tr=udp%3A%2F%2Fexodus.desync.com%3A6969","seeders":0,"leechers":1,"uploader":"tykoon123","files":-1,"time":1341357871,"description":"Poster: &lt;a href=&quot;\nhttp://imgh.us/whitecollarhooligan2d_1.jpg&quot; rel=&quot;nofollow&quot; target=&quot;_NEW&quot;&gt;\nhttp://imgh.us/whitecollarhooligan2d_1.jpg&lt;/a&gt;\n\nIMDB: www.imdb.com/title/tt2121377/\n\nPlot:\nThis beautiful game isn't life or death... it's more important than that.\n\n\nFormat : AVI\nFormat/Info : Audio Video Interleave\nFile size : 713 MiB\nDuration : 1h 17mn\nOverall bit rate : 1280 Kbps\nWriting application : Lavf53.21.0\nOriginal source form/Name : WHITE_COLLAR_HOOLIGAN\n\nVideo\nID : 0\nFormat : MPEG-4 Visual\nFormat profile : Advanced Simple@L5\nFormat settings, BVOP : 2\nFormat settings, QPel : No\nFormat settings, GMC : No warppoints\nFormat settings, Matrix : Default (H.263)\nMuxing mode : Packed bitstream\nCodec ID : DX50\nCodec ID/Hint : DivX 5\nDuration : 1h 17mn\nBit rate : 821 Kbps\nWidth : 720 pixels\nHeight : 310 pixels\nDisplay aspect ratio : 2.35:1\nFrame rate : 25.000 fps\nColor space : YUV\nChroma subsampling : 4:2:0\nBit depth : 8 bits\nScan type : Progressive\nCompression mode : Lossy\nBits/(Pixel*Frame) : 0.147\nStream size : 458 MiB (64%)\nWriting library : XviD 1.2.1 (UTC 2008-12-04)\n\nAudio\nID : 1\nFormat : AC-3\nFormat/Info : Audio Coding 3\nMode extension : CM (complete main)\nCodec ID : 2000\nDuration : 1h 17mn\nBit rate mode : Constant\nBit rate : 448 Kbps\nChannel(s) : 6 channels\nChannel positions : Front: L C R, Side: L R, LFE\nSampling rate : 48.0 KHz\nBit depth : 16 bits\nCompression mode : Lossy\nStream size : 250 MiB (35%)\nAlignment : Aligned on interleaves\nInterleave, duration : 32 ms (0.80 video frame)\n\nSCREENS: &lt;a href=&quot;\nhttp://imgh.us/The_Rise_And_Fall_Of_a_White_Collar_Hooligan_2012_DVDRip_XviD-_TWiZTED-001_1.jpg&quot; rel=&quot;nofollow&quot; target=&quot;_NEW&quot;&gt;\nhttp://imgh.us/The_Rise_And_Fall_Of_a_White_Collar_Hooligan_2012_DVDRip_XviD-_TWiZTED-001_1.jpg&lt;/a&gt; &lt;a href=&quot;\nhttp://imgh.us/The_Rise_And_Fall_Of_a_White_Collar_Hooligan_2012_DVDRip_XviD-_TWiZTED-004_1.jpg&quot; rel=&quot;nofollow&quot; target=&quot;_NEW&quot;&gt;\nhttp://imgh.us/The_Rise_And_Fall_Of_a_White_Collar_Hooligan_2012_DVDRip_XviD-_TWiZTED-004_1.jpg&lt;/a&gt; &lt;a href=&quot;\nhttp://imgh.us/The_Rise_And_Fall_Of_a_White_Collar_Hooligan_2012_DVDRip_XviD-_TWiZTED-015_1.jpg&quot; rel=&quot;nofollow&quot; target=&quot;_NEW&quot;&gt;\nhttp://imgh.us/The_Rise_And_Fall_Of_a_White_Collar_Hooligan_2012_DVDRip_XviD-_TWiZTED-015_1.jpg&lt;/a&gt; &lt;a href=&quot;\nhttp://imgh.us/The_Rise_And_Fall_Of_a_White_Collar_Hooligan_2012_DVDRip_XviD-_TWiZTED-017_1.jpg&quot; rel=&quot;nofollow&quot; target=&quot;_NEW&quot;&gt;\nhttp://imgh.us/The_Rise_And_Fall_Of_a_White_Collar_Hooligan_2012_DVDRip_XviD-_TWiZTED-017_1.jpg&lt;/a&gt; &lt;a href=&quot;\nhttp://imgh.us/The_Rise_And_Fall_Of_a_White_Collar_Hooligan_2012_DVDRip_XviD-_TWiZTED-011.jpg&quot; rel=&quot;nofollow&quot; target=&quot;_NEW&quot;&gt;\nhttp://imgh.us/The_Rise_And_Fall_Of_a_White_Collar_Hooligan_2012_DVDRip_XviD-_TWiZTED-011.jpg&lt;/a&gt; &lt;a href=&quot;\nhttp://imgh.us/The_Rise_And_Fall_Of_a_White_Collar_Hooligan_2012_DVDRip_XviD-_TWiZTED-012.jpg&quot; rel=&quot;nofollow&quot; target=&quot;_NEW&quot;&gt;\nhttp://imgh.us/The_Rise_And_Fall_Of_a_White_Collar_Hooligan_2012_DVDRip_XviD-_TWiZTED-012.jpg&lt;/a&gt; &lt;a href=&quot;\nhttp://imgh.us/The_Rise_And_Fall_Of_a_White_Collar_Hooligan_2012_DVDRip_XviD-_TWiZTED-013.jpg&quot; rel=&quot;nofollow&quot; target=&quot;_NEW&quot;&gt;\nhttp://imgh.us/The_Rise_And_Fall_Of_a_White_Collar_Hooligan_2012_DVDRip_XviD-_TWiZTED-013.jpg&lt;/a&gt;\n","torrent":{"xt":"urn:btih:0e2b5add15d68a99e725ccd4fc22434bdf819319","amp;dn":"The+Rise+And+Fall+Of+a+White+Collar+Hooligan+2012+DVDRip+XviD-+T","amp;tr":["udp%3A%2F%2Ftracker.openbittorrent.com%3A80","udp%3A%2F%2Fopen.demonii.com%3A1337","udp%3A%2F%2Ftracker.coppersurfer.tk%3A6969","udp%3A%2F%2Fexodus.desync.com%3A6969"],"infoHash":"0e2b5add15d68a99e725ccd4fc22434bdf819319","infoHashBuffer":{"type":"Buffer","data":[14,43,90,221,21,214,138,153,231,37,204,212,252,34,67,75,223,129,147,25]},"announce":[],"urlList":[]}}